<svg xmlns="http://www.w3.org/2000/svg" xmlns:xlink="http://www.w3.org/1999/xlink" id="Layer_1" data-name="Layer 1" viewBox="0 0 186 176"><defs><style>.cls-1{fill:url(#linear-gradient);}.cls-2{fill:#b83a4b;}.cls-3{fill:#182e4d;}.cls-4{fill:#003f86;}.cls-5{clip-path:url(#clip-path);}.cls-6{fill:url(#linear-gradient-3);}</style><linearGradient id="linear-gradient" x1="95.77" y1="38.69" x2="95.77" y2="114.55" gradientUnits="userSpaceOnUse"><stop offset="0" stop-color="#f4ad92"></stop><stop offset="1" stop-color="#b83a4b"></stop></linearGradient><clipPath id="clip-path"><path class="cls-1" d="M100.76,104.86h-1v9.69h3.65v-10a19.87,19.87,0,0,1-2.63.3m-23.36-.31h-.9v10h3.7v-10Zm35,0h-1v10h3.68v-10Zm-30.07,10H86v-10H82.31Zm11.62,0H97.6v-9.82a25,25,0,0,1-3.67-.55ZM105.55,104v10.55h3.69V101.78a9.26,9.26,0,0,1-3.69,2.22m-5.81-3.34H100a8.86,8.86,0,0,0,1.19-.07,3.93,3.93,0,0,0,2.25-.93V95.13a22.84,22.84,0,0,0-2.58-1.9,6.74,6.74,0,0,0-.59-.34,4.1,4.1,0,0,0-.48-.31Zm-5.81-4.07c1.32,1.18,2.76,2.46,3.67,3.2V91.26a22,22,0,0,1-3.67-2.62ZM76.5,90.41v12.36l0-.08s0-.09.08-.1l0,0a9.67,9.67,0,0,0,1.22-3.22c.18-1.07.19-7.63.18-12.13-.52,1-1,2.17-1.55,3.2m29.05-3.71c.1,0,.19.12.23.14A17.89,17.89,0,0,1,109,89.19a1.87,1.87,0,0,1,.2.22V82.05c-.28-.21-.59-.42-.68-.51l-1.71-1.27-.86-.65-.23-.19-.21-.15Zm-5.81-8.91v5.4a.94.94,0,0,1,.1.1l.32.17c.19.14,1.78,1.1,3.23,2V77.75a3,3,0,0,0-1.11-.35,2.32,2.32,0,0,0-.47,0,5.29,5.29,0,0,0-2.07.42M76.5,67.61V78.87l2.26-4.65.29-.55h1.13l0-6.06Zm34.89,0,0,25.82a10.45,10.45,0,0,1,0,4.4V103c.22-.25.43-.47.48-.54s.05,0,.08-.09c.4-.44.7-.85.94-1.16s.94-1.65,1.08-1.93c.27-.54.52-1.08.75-1.61l.35-.85V67.61ZM82.31,73.67H86V57.08H82.31Zm23.24-16.6V73.28c1.18.12,2.38.28,3.69.51V57.07ZM88.13,46.46V73.67h.76s-.4.56-.76,1.13v28.6l.76,1.15h-.76v10H91.8V103.66a2.84,2.84,0,0,1-.44-.1l-.77-.21,0-9.78s.47.45,1.24,1.1v-9a4.72,4.72,0,0,1-.36-1.1,11.38,11.38,0,0,1,.12-5.4s.08-.23.24-.55V46.46Zm11.61,0V73.38a8.64,8.64,0,0,1,1.11-.14c.66-.06,1.35-.09,2.05-.09a3.93,3.93,0,0,1,.49,0V46.46Zm-5.81-7.77v37c.07-.08.15-.14.23-.22a14.75,14.75,0,0,1,2.52-1.36c.29-.1.61-.19.92-.28V38.69Z"></path></clipPath><linearGradient id="linear-gradient-3" x1="95.77" y1="38.69" x2="95.77" y2="114.55" xlink:href="#linear-gradient"></linearGradient></defs><title>accr_colour_msa</title><rect class="cls-2" x="51.5" y="113" width="27" height="1"></rect><rect class="cls-2" x="113" y="113" width="26.5" height="1"></rect><path class="cls-3" d="M19.13,151.24V140h2.26l2.66,8c.25.75.43,1.31.54,1.67q.19-.63.6-1.8L27.9,140h2v11.29H28.47v-9.45l-3.29,9.45H23.84l-3.27-9.63v9.63Z"></path><path class="cls-3" d="M31.81,147.6l1.4-.14a3.26,3.26,0,0,0,.45,1.41,2.68,2.68,0,0,0,1.15.87,4.29,4.29,0,0,0,1.72.33,4.59,4.59,0,0,0,1.53-.25,2.15,2.15,0,0,0,1-.69,1.57,1.57,0,0,0,.33-1,1.47,1.47,0,0,0-.32-.94,2.43,2.43,0,0,0-1-.67c-.32-.11-1-.29-2-.55a9.78,9.78,0,0,1-2.19-.69,3.35,3.35,0,0,1-1.2-1,2.71,2.71,0,0,1-.38-1.41,2.77,2.77,0,0,1,.49-1.61,2.92,2.92,0,0,1,1.41-1.11,5.4,5.4,0,0,1,2.06-.39,5.77,5.77,0,0,1,2.21.4,3.33,3.33,0,0,1,1.48,1.19,3.52,3.52,0,0,1,.56,1.77l-1.44.11a2.26,2.26,0,0,0-.78-1.61,3,3,0,0,0-2-.53,3.11,3.11,0,0,0-2,.48,1.47,1.47,0,0,0-.63,1.21,1.29,1.29,0,0,0,.44,1,6.06,6.06,0,0,0,2.26.8,13.64,13.64,0,0,1,2.5.73,3.29,3.29,0,0,1,1.45,1.14,2.86,2.86,0,0,1,.47,1.6,3.16,3.16,0,0,1-.51,1.7A3.3,3.3,0,0,1,38.78,151a4.67,4.67,0,0,1-2.17.47,6.28,6.28,0,0,1-2.55-.47,3.61,3.61,0,0,1-1.64-1.33,3.73,3.73,0,0,1-.61-2"></path><path class="cls-3" d="M41.57,151.23,45.91,140h1.61l4.61,11.28H50.44l-1.31-3.43H44.4l-1.24,3.43Zm3.27-4.64h3.82l-1.18-3.12c-.38-1-.64-1.74-.81-2.34a11.35,11.35,0,0,1-.61,2.15Z"></path><polygon class="cls-3" points="56.86 151.24 56.86 139.95 65.03 139.95 65.03 141.27 58.37 141.27 58.37 144.72 64.6 144.72 64.6 146.05 58.37 146.05 58.37 149.89 65.29 149.89 65.29 151.24 56.86 151.24"></polygon><polygon class="cls-3" points="67.34 151.24 67.34 139.95 68.85 139.95 74.79 148.8 74.79 139.95 76.23 139.95 76.23 151.24 74.68 151.24 68.77 142.34 68.77 151.24 67.34 151.24"></polygon><path class="cls-3" d="M95.75,151.24v-2.72h-4.9v-1.26L96,139.94h1.12v7.32h1.53v1.26H97.13v2.72Zm0-4v-5.12l-3.53,5.12Z"></path><path class="cls-3" d="M102.21,145.1a2.74,2.74,0,0,1-1.29-.88,2.53,2.53,0,0,1-.41-1.41,2.78,2.78,0,0,1,.89-2.07,3.68,3.68,0,0,1,4.72,0,2.77,2.77,0,0,1,.92,2.08,2.33,2.33,0,0,1-.42,1.39,2.85,2.85,0,0,1-1.26.88,3.06,3.06,0,0,1,1.58,1.1,3,3,0,0,1,.56,1.79,3.18,3.18,0,0,1-1,2.44,4.15,4.15,0,0,1-5.38,0,3.36,3.36,0,0,1-1-2.46,3,3,0,0,1,.58-1.86,2.83,2.83,0,0,1,1.58-1m-.73,2.87a2.37,2.37,0,0,0,.29,1.15,2,2,0,0,0,.83.86,2.44,2.44,0,0,0,1.18.3,2.24,2.24,0,0,0,1.66-.65,2.19,2.19,0,0,0,.64-1.61,2.37,2.37,0,0,0-4-1.68,2.22,2.22,0,0,0-.64,1.63m.45-5.2a1.78,1.78,0,0,0,.52,1.31,1.89,1.89,0,0,0,1.33.5,1.84,1.84,0,0,0,1.31-.5,1.65,1.65,0,0,0,.52-1.25,1.69,1.69,0,0,0-.53-1.27,1.81,1.81,0,0,0-1.33-.52,1.78,1.78,0,0,0-1.3.51,1.6,1.6,0,0,0-.52,1.22"></path><path class="cls-3" d="M108.83,145.65a10.47,10.47,0,0,1,.42-3.22,4.06,4.06,0,0,1,1.22-1.88,3.15,3.15,0,0,1,2-.66,3.41,3.41,0,0,1,1.58.37,3,3,0,0,1,1.14,1.06A5.73,5.73,0,0,1,116,143a12.61,12.61,0,0,1,.24,2.67,10.82,10.82,0,0,1-.4,3.22,4,4,0,0,1-1.22,1.87,3,3,0,0,1-2,.68,3.07,3.07,0,0,1-2.56-1.17,7.43,7.43,0,0,1-1.13-4.6m1.43,0a7,7,0,0,0,.66,3.72,2,2,0,0,0,1.6.91,1.89,1.89,0,0,0,1.59-.93,10.52,10.52,0,0,0,0-7.39,1.92,1.92,0,0,0-1.6-.93,1.83,1.83,0,0,0-1.53.81,7.28,7.28,0,0,0-.72,3.81"></path><path class="cls-3" d="M122,151.24v-2.72h-4.9v-1.26l5.15-7.32h1.14v7.32H125v1.26h-1.52v2.72Zm0-4v-5.12l-3.54,5.12Z"></path><path class="cls-3" d="M127.13,151.23h1.55v-1.6h-1.55Zm0-6.59h1.55v-1.56h-1.55Z"></path><path class="cls-3" d="M138,149.89v1.33h-7.45a2.66,2.66,0,0,1,.15-1,6,6,0,0,1,.92-1.5,14.87,14.87,0,0,1,1.81-1.7,15.68,15.68,0,0,0,2.48-2.37,2.8,2.8,0,0,0,.65-1.7,1.86,1.86,0,0,0-.58-1.37,2.16,2.16,0,0,0-1.55-.56,2.09,2.09,0,0,0-1.59.6,2.3,2.3,0,0,0-.61,1.66l-1.42-.16a3.5,3.5,0,0,1,1.09-2.42,3.87,3.87,0,0,1,2.58-.82,3.62,3.62,0,0,1,2.57.89,2.94,2.94,0,0,1,.94,2.25,3.42,3.42,0,0,1-.28,1.3,5.24,5.24,0,0,1-.91,1.39,22.22,22.22,0,0,1-2.14,2c-.83.7-1.36,1.16-1.59,1.4a4.43,4.43,0,0,0-.6.76Z"></path><path class="cls-3" d="M139.51,145.65a10.51,10.51,0,0,1,.41-3.22,4,4,0,0,1,1.22-1.88,3.15,3.15,0,0,1,2.05-.66,3.49,3.49,0,0,1,1.59.37,3.18,3.18,0,0,1,1.13,1.06,6,6,0,0,1,.7,1.66,11.9,11.9,0,0,1,.25,2.67,10.5,10.5,0,0,1-.4,3.22,4.06,4.06,0,0,1-1.23,1.87,3,3,0,0,1-2,.68,3.11,3.11,0,0,1-2.57-1.17,7.58,7.58,0,0,1-1.11-4.6m1.42,0a7.23,7.23,0,0,0,.65,3.72,1.94,1.94,0,0,0,1.61.91,1.9,1.9,0,0,0,1.6-.93,10.67,10.67,0,0,0,0-7.39,1.94,1.94,0,0,0-1.62-.93,1.84,1.84,0,0,0-1.52.81,7.28,7.28,0,0,0-.72,3.81"></path><path class="cls-3" d="M148.28,145.65a10.51,10.51,0,0,1,.41-3.22,4.12,4.12,0,0,1,1.21-1.88,3.21,3.21,0,0,1,2-.66,3.56,3.56,0,0,1,1.6.37,3,3,0,0,1,1.12,1.06,5.72,5.72,0,0,1,.7,1.66,11.34,11.34,0,0,1,.25,2.67,9.89,9.89,0,0,1-.41,3.22,3.89,3.89,0,0,1-1.21,1.87,3,3,0,0,1-2.05.68,3.11,3.11,0,0,1-2.56-1.17,7.51,7.51,0,0,1-1.11-4.6m1.41,0a7.13,7.13,0,0,0,.65,3.72,2,2,0,0,0,1.61.91,1.88,1.88,0,0,0,1.6-.93,10.67,10.67,0,0,0,0-7.39A1.94,1.94,0,0,0,152,141a1.8,1.8,0,0,0-1.53.81,7,7,0,0,0-.73,3.81"></path><path class="cls-3" d="M157,148.27l1.45-.12a2.49,2.49,0,0,0,.76,1.58,2,2,0,0,0,1.4.54,2.23,2.23,0,0,0,1.7-.74,2.81,2.81,0,0,0,.69-2,2.65,2.65,0,0,0-.66-1.88,2.37,2.37,0,0,0-1.74-.68,2.48,2.48,0,0,0-2.06,1.1l-1.3-.16,1.1-5.8H164v1.32h-4.5l-.62,3a3.72,3.72,0,0,1,2.13-.69,3.5,3.5,0,0,1,2.51,1,3.68,3.68,0,0,1,1,2.63,4.16,4.16,0,0,1-.91,2.66,3.95,3.95,0,0,1-5.46.52,3.38,3.38,0,0,1-1.12-2.29"></path><path class="cls-3" d="M29.43,167V155.7h5a7,7,0,0,1,2.29.3A2.53,2.53,0,0,1,38,157.09a3.09,3.09,0,0,1,.46,1.69,2.72,2.72,0,0,1-.77,2,3.87,3.87,0,0,1-2.4,1.06,3.34,3.34,0,0,1,.9.57,7.29,7.29,0,0,1,1.25,1.49l2,3.06H37.49L36,164.64c-.44-.68-.8-1.19-1.08-1.57a4.14,4.14,0,0,0-.76-.76,3,3,0,0,0-.69-.29,6.54,6.54,0,0,0-.83-.05H30.93v5Zm1.5-6.28h3.19a4.9,4.9,0,0,0,1.61-.22,1.8,1.8,0,0,0,1.17-1.69,1.71,1.71,0,0,0-.58-1.32,2.74,2.74,0,0,0-1.83-.51H30.93Z"></path><path class="cls-3" d="M46.2,164.33l1.43.2a3.48,3.48,0,0,1-1.25,1.95,4.24,4.24,0,0,1-5.18-.42,4.25,4.25,0,0,1-1-3.09,4.64,4.64,0,0,1,1-3.22A3.74,3.74,0,0,1,44,158.61a3.5,3.5,0,0,1,2.68,1.12,4.45,4.45,0,0,1,1,3.13v.39h-6.1a3.17,3.17,0,0,0,.76,2.05A2.32,2.32,0,0,0,44,166a2.21,2.21,0,0,0,1.31-.4,2.65,2.65,0,0,0,.85-1.31m-4.56-2.21h4.58a2.84,2.84,0,0,0-.52-1.55,2.24,2.24,0,0,0-3.31-.17,2.5,2.5,0,0,0-.75,1.72"></path><path class="cls-3" d="M49.11,167.65l1.35.21a1.45,1.45,0,0,0,.47.91,2.36,2.36,0,0,0,1.41.39,2.54,2.54,0,0,0,1.49-.39,2.14,2.14,0,0,0,.72-1.09,12.18,12.18,0,0,0,.08-1.75,2.81,2.81,0,0,1-2.26,1,3.11,3.11,0,0,1-2.61-1.2,4.8,4.8,0,0,1-.92-2.92,5.34,5.34,0,0,1,.43-2.16,3.14,3.14,0,0,1,1.22-1.52,3.26,3.26,0,0,1,1.89-.55,3,3,0,0,1,2.38,1.17v-1H56v7.07a6.79,6.79,0,0,1-.39,2.7,2.72,2.72,0,0,1-1.23,1.26,4.31,4.31,0,0,1-2.07.45,3.87,3.87,0,0,1-2.37-.66,2.23,2.23,0,0,1-.87-2m1.17-4.9a3.53,3.53,0,0,0,.62,2.35,2.1,2.1,0,0,0,3.2,0,4.26,4.26,0,0,0,0-4.57,2.11,2.11,0,0,0-1.61-.76,2,2,0,0,0-1.57.76,3.32,3.32,0,0,0-.63,2.22"></path><rect class="cls-3" x="58.53" y="165.4" width="1.57" height="1.58"></rect><polygon class="cls-3" points="67.06 166.97 67.06 155.7 68.58 155.7 74.51 164.57 74.51 155.7 75.95 155.7 75.95 166.97 74.41 166.97 68.49 158.12 68.49 166.97 67.06 166.97"></polygon><path class="cls-3" d="M77.76,162.9A4.22,4.22,0,0,1,79,159.54a3.79,3.79,0,0,1,2.57-.91,3.73,3.73,0,0,1,2.76,1.1,4.25,4.25,0,0,1,1.07,3,5.44,5.44,0,0,1-.49,2.5,3.26,3.26,0,0,1-1.36,1.39,4.14,4.14,0,0,1-2,.51,3.63,3.63,0,0,1-2.77-1.11,4.34,4.34,0,0,1-1.06-3.16m1.41,0a3.3,3.3,0,0,0,.7,2.33,2.09,2.09,0,0,0,1.72.8,2.13,2.13,0,0,0,1.71-.8,3.49,3.49,0,0,0,.68-2.38,3.41,3.41,0,0,0-.68-2.3,2.2,2.2,0,0,0-1.71-.77,2.15,2.15,0,0,0-1.72.77,3.42,3.42,0,0,0-.7,2.35"></path><rect class="cls-3" x="87.44" y="165.4" width="1.57" height="1.58"></rect><polygon class="cls-3" points="95.9 166.97 95.9 155.7 97.4 155.7 97.4 165.65 102.95 165.65 102.95 166.97 95.9 166.97"></polygon><path class="cls-3" d="M104.23,163.36l1.4-.14a2.81,2.81,0,0,0,.47,1.38,2.42,2.42,0,0,0,1.13.9,4.57,4.57,0,0,0,1.74.34,3.8,3.8,0,0,0,1.51-.26,2.34,2.34,0,0,0,1-.69,1.63,1.63,0,0,0,.33-1,1.43,1.43,0,0,0-.33-.93,2.26,2.26,0,0,0-1-.66,20,20,0,0,0-2-.55,9.88,9.88,0,0,1-2.17-.69A3.19,3.19,0,0,1,105,160a2.69,2.69,0,0,1-.4-1.4,2.9,2.9,0,0,1,.51-1.63,3.09,3.09,0,0,1,1.4-1.11,5.58,5.58,0,0,1,2.08-.38,5.85,5.85,0,0,1,2.21.4,3.22,3.22,0,0,1,1.48,1.2,3.55,3.55,0,0,1,.55,1.77l-1.43.11a2.36,2.36,0,0,0-.78-1.62,3,3,0,0,0-2-.56,3.12,3.12,0,0,0-2,.51,1.48,1.48,0,0,0-.62,1.19,1.22,1.22,0,0,0,.44,1,5.52,5.52,0,0,0,2.25.83,14.68,14.68,0,0,1,2.49.7,3.57,3.57,0,0,1,1.46,1.17,2.89,2.89,0,0,1,.46,1.61,3.2,3.2,0,0,1-.51,1.68,3.43,3.43,0,0,1-1.47,1.23,5.2,5.2,0,0,1-2.19.46,6.3,6.3,0,0,1-2.54-.46,3.52,3.52,0,0,1-1.64-1.34,3.76,3.76,0,0,1-.62-2"></path><path class="cls-3" d="M115.25,167V155.69h4.26a9,9,0,0,1,1.71.13,3.07,3.07,0,0,1,1.38.52,2.7,2.7,0,0,1,.91,1.08,3.68,3.68,0,0,1-.57,4,4.35,4.35,0,0,1-3.32,1h-2.89V167Zm1.48-5.93h2.93a3,3,0,0,0,2-.52,1.92,1.92,0,0,0,.62-1.52,2,2,0,0,0-.36-1.22,1.72,1.72,0,0,0-.94-.65,5.47,5.47,0,0,0-1.4-.11h-2.89Z"></path><path class="cls-3" d="M129.28,161.42a11,11,0,0,1,.41-3.23,4.2,4.2,0,0,1,1.23-1.87,3.11,3.11,0,0,1,2.05-.65,3.27,3.27,0,0,1,1.59.34,2.94,2.94,0,0,1,1.12,1.07,5.51,5.51,0,0,1,.72,1.66,11.43,11.43,0,0,1,.25,2.68,10.32,10.32,0,0,1-.41,3.2,4,4,0,0,1-1.22,1.89,3.49,3.49,0,0,1-4.63-.49,7.67,7.67,0,0,1-1.11-4.6m1.43,0a7,7,0,0,0,.66,3.7,1.91,1.91,0,0,0,1.6.92,1.88,1.88,0,0,0,1.59-.92,7,7,0,0,0,.66-3.7,6.94,6.94,0,0,0-.66-3.7,1.94,1.94,0,0,0-1.62-.94,1.8,1.8,0,0,0-1.51.84,7.07,7.07,0,0,0-.72,3.8"></path><path class="cls-3" d="M138.05,161.42a10.66,10.66,0,0,1,.4-3.23,4.2,4.2,0,0,1,1.23-1.87,3.17,3.17,0,0,1,2-.65,3.24,3.24,0,0,1,1.59.34,3,3,0,0,1,1.11,1.07,5.28,5.28,0,0,1,.73,1.66,11.92,11.92,0,0,1,.26,2.68,10.29,10.29,0,0,1-.42,3.2,3.85,3.85,0,0,1-1.24,1.89,3,3,0,0,1-2,.66,3.14,3.14,0,0,1-2.57-1.15,7.6,7.6,0,0,1-1.11-4.6m1.42,0a7,7,0,0,0,.65,3.7,1.86,1.86,0,0,0,3.21,0,7.17,7.17,0,0,0,.64-3.7,7.09,7.09,0,0,0-.64-3.7,2,2,0,0,0-1.62-.94,1.83,1.83,0,0,0-1.53.84,7.09,7.09,0,0,0-.71,3.8"></path><path class="cls-3" d="M154.09,165.65V167h-7.45a2.2,2.2,0,0,1,.17-.95,4.57,4.57,0,0,1,.9-1.5,14.12,14.12,0,0,1,1.81-1.7,16.16,16.16,0,0,0,2.49-2.4,2.87,2.87,0,0,0,.66-1.68,1.85,1.85,0,0,0-.6-1.37,2.15,2.15,0,0,0-1.54-.56,2.12,2.12,0,0,0-1.6.6,2.26,2.26,0,0,0-.61,1.65l-1.41-.14a3.52,3.52,0,0,1,1.1-2.44,3.81,3.81,0,0,1,2.55-.83,3.63,3.63,0,0,1,2.58.91,3,3,0,0,1,.94,2.24,3.3,3.3,0,0,1-.28,1.32,5.43,5.43,0,0,1-.9,1.37,20.5,20.5,0,0,1-2.16,2,20.36,20.36,0,0,0-1.59,1.44,2.63,2.63,0,0,0-.58.73Z"></path><path class="cls-4" d="M136.09,118.32v.61h-1c-.12,1,0,2.18-.05,3.24h-.6v-3.24h-1v-.61Z"></path><path class="cls-4" d="M21.68,91.29l-10.57-8.1,3.06-4a14.23,14.23,0,0,1,1.32-1.51A4.43,4.43,0,0,1,17,76.75a3.19,3.19,0,0,1,1.66-.07,4.14,4.14,0,0,1,1.68.8A3.93,3.93,0,0,1,22,80.08c.18,1.06-.3,2.31-1.44,3.83L18.45,86.6l4.3,3.31Zm-4.47-5.65,2.11-2.73a3.56,3.56,0,0,0,.94-2.3,2.16,2.16,0,0,0-1-1.66,2.29,2.29,0,0,0-1.41-.54,1.89,1.89,0,0,0-1.31.4A11.12,11.12,0,0,0,15.49,80l-2.06,2.71Z"></path><path class="cls-4" d="M29.15,81.57l-7.66-5.89.9-1.16,1.16.9a4.13,4.13,0,0,1-.43-1.66,1.75,1.75,0,0,1,.38-1,3.11,3.11,0,0,1,1.42-1l.88,1.38a2.16,2.16,0,0,0-1,.73,1.47,1.47,0,0,0-.33,1,1.67,1.67,0,0,0,.33,1,5.9,5.9,0,0,0,1.34,1.4l4,3.07Z"></path><path class="cls-4" d="M28.8,74.11a5.13,5.13,0,0,1-2.25-3.61,4.43,4.43,0,0,1,1-3.06,4.28,4.28,0,0,1,3-1.78,4.85,4.85,0,0,1,3.64,1.18,6.52,6.52,0,0,1,2,2.22,4,4,0,0,1,.33,2.29,4.92,4.92,0,0,1-1,2.24,4.27,4.27,0,0,1-3,1.79,5.24,5.24,0,0,1-3.73-1.27m1-1.35a4.17,4.17,0,0,0,2.71,1.06,2.62,2.62,0,0,0,2-1.06A2.54,2.54,0,0,0,35,70.59a4.26,4.26,0,0,0-1.75-2.37,4,4,0,0,0-2.66-1,2.57,2.57,0,0,0-2,1,2.7,2.7,0,0,0-.5,2.19,4,4,0,0,0,1.69,2.32"></path><path class="cls-4" d="M43.17,63.31l-1-.75a3,3,0,0,1-.5,3,3.87,3.87,0,0,1-1.8,1.3,4.3,4.3,0,0,1-2.32.1,6.48,6.48,0,0,1-2.4-1.16,6.85,6.85,0,0,1-1.77-2,3.73,3.73,0,0,1-.56-2.25,3.65,3.65,0,0,1,.81-2.08,3.13,3.13,0,0,1,1.25-1,2.85,2.85,0,0,1,1.42-.28l-3.79-2.93,1-1.29L44.09,62.1Zm-7,1.16a4,4,0,0,0,2.68,1,2.27,2.27,0,0,0,1.83-.89,2.33,2.33,0,0,0,.43-2,4,4,0,0,0-1.68-2.22,4.55,4.55,0,0,0-2.75-1.16,2.27,2.27,0,0,0-1.89.92,2.23,2.23,0,0,0-.41,2,4.36,4.36,0,0,0,1.79,2.31"></path><path class="cls-4" d="M49.56,55l-1.13-.87a3.52,3.52,0,0,1-.56,3.42,3.85,3.85,0,0,1-1.22,1.07,2.79,2.79,0,0,1-1.33.38,3,3,0,0,1-1.26-.35,6.53,6.53,0,0,1-1.28-.85L38,54.14l1-1.31,4.26,3.26a10.09,10.09,0,0,0,1.41,1,1.7,1.7,0,0,0,1.21.09A2,2,0,0,0,47,56.4a2.57,2.57,0,0,0,.53-1.32,2,2,0,0,0-.26-1.35,5.17,5.17,0,0,0-1.33-1.36l-4.11-3.14,1-1.3,7.66,5.87Z"></path><path class="cls-4" d="M53.1,44.55l1.14-1.17a4.09,4.09,0,0,1,1.23,2.67,3.72,3.72,0,0,1-.86,2.68,4.06,4.06,0,0,1-3,1.75A5.22,5.22,0,0,1,48,49.17a6.41,6.41,0,0,1-1.86-2.07,3.51,3.51,0,0,1-.42-2.31,4.44,4.44,0,0,1,.93-2.2A4,4,0,0,1,48.81,41a3.55,3.55,0,0,1,2.57.37l-.78,1.4A2.54,2.54,0,0,0,49,42.55a2,2,0,0,0-1.26.82,2.56,2.56,0,0,0-.49,2.12A4,4,0,0,0,49,47.81,4.35,4.35,0,0,0,51.64,49a2.4,2.4,0,0,0,1.88-1A2.23,2.23,0,0,0,54,46.28a3,3,0,0,0-.94-1.73"></path><path class="cls-4" d="M58.8,40.51l1.29.7a5.92,5.92,0,0,1-.63,1.07,3.1,3.1,0,0,1-1.06.93,1.73,1.73,0,0,1-1,.09,6.31,6.31,0,0,1-1.64-1l-4.42-3.39-.73,1-1-.77.71-1-1.89-1.46.21-1.88,2.67,2.06,1-1.31,1,.77-1,1.31L56.8,41a3,3,0,0,0,.77.48.66.66,0,0,0,.43,0,.85.85,0,0,0,.41-.37,2.3,2.3,0,0,0,.39-.6"></path><path class="cls-4" d="M125.19,32.22l.62,1.73a6.08,6.08,0,0,1-3.88.19,5.47,5.47,0,0,1-2.91-2.3,6.27,6.27,0,0,1-1.23-3.39,5.37,5.37,0,0,1,1-3.11,8.77,8.77,0,0,1,2.57-2.58,7.58,7.58,0,0,1,3.46-1.37A5.26,5.26,0,0,1,128,22a6.45,6.45,0,0,1,2.47,2.21,5.47,5.47,0,0,1,1,3.36,5.35,5.35,0,0,1-1.33,3.18l-1.29-1.21a4.27,4.27,0,0,0,1-2.29A3.66,3.66,0,0,0,129.2,25a4.18,4.18,0,0,0-2-1.72,3.77,3.77,0,0,0-2.46-.1,7.53,7.53,0,0,0-2.36,1.07,8.08,8.08,0,0,0-2.18,2.08,3.49,3.49,0,0,0-.7,2.33,4.23,4.23,0,0,0,.73,2.24,3.64,3.64,0,0,0,2.13,1.59,4.32,4.32,0,0,0,2.87-.26"></path><path class="cls-4" d="M129.73,41.76l.76,1.51a4.21,4.21,0,0,1-2.73.08,5.11,5.11,0,0,1-3-5.38,5.11,5.11,0,0,1,2.34-3.07,5.3,5.3,0,0,1,3.84-1.07,4.32,4.32,0,0,1,2.93,1.93,4.17,4.17,0,0,1,.69,3.38,5.34,5.34,0,0,1-2.4,3.1l-.36.24-4-6a3.7,3.7,0,0,0-1.51,2.13,2.72,2.72,0,0,0,.41,2.14,2.64,2.64,0,0,0,1.28,1,3.07,3.07,0,0,0,1.81,0m-.82-5.95,3,4.48a3.41,3.41,0,0,0,1.17-1.52,2.59,2.59,0,0,0-.35-2.24,2.53,2.53,0,0,0-1.67-1.14,3.13,3.13,0,0,0-2.17.42"></path><path class="cls-4" d="M129.28,46.67l8-5.42.84,1.25-1.23.8a3.93,3.93,0,0,1,1.72.12,1.66,1.66,0,0,1,.86.69,3.17,3.17,0,0,1,.49,1.68l-1.56.39A2.62,2.62,0,0,0,138,45a1.48,1.48,0,0,0-.8-.62,1.69,1.69,0,0,0-1.09,0,5.83,5.83,0,0,0-1.73.83L130.21,48Z"></path><path class="cls-4" d="M136,54l-1.06,1a6.53,6.53,0,0,1-.82-.94,3,3,0,0,1-.54-1.32,1.66,1.66,0,0,1,.22-1,6.08,6.08,0,0,1,1.51-1.23l4.6-3.12-.67-1,1.06-.72.66,1,2-1.32,1.73.79-2.81,1.89.91,1.36-1,.73-.92-1.37L136.17,52a2.86,2.86,0,0,0-.7.58.73.73,0,0,0-.1.42,1,1,0,0,0,.21.53A5.86,5.86,0,0,0,136,54"></path><path class="cls-4" d="M135.78,56.26l8-5.38.91,1.34-8,5.43Zm9.48-6.39,1.56-1.06.92,1.37-1.57,1Z"></path><path class="cls-4" d="M138.35,60.1l7-4.68-.8-1.22,1.05-.69.8,1.19.86-.56a4.24,4.24,0,0,1,1.31-.67,1.88,1.88,0,0,1,1.31.12,2.93,2.93,0,0,1,1.26,1.14,8.62,8.62,0,0,1,.71,1.36l-1.32.61a7.59,7.59,0,0,0-.45-.86,1.6,1.6,0,0,0-.86-.7,1.75,1.75,0,0,0-1.16.41l-.75.5,1.06,1.56-1.06.73-1.06-1.56-6.94,4.67Z"></path><path class="cls-4" d="M141.08,64.16l8-5.42L150,60.1l-8,5.41Zm9.5-6.41,1.55-1.06.93,1.34-1.57,1.08Z"></path><path class="cls-4" d="M149.91,70.89l.73,1.47a4.23,4.23,0,0,1-2.93.33A4.11,4.11,0,0,1,145.44,71a4.19,4.19,0,0,1-.71-3.37,5.18,5.18,0,0,1,2.42-3.08,6.51,6.51,0,0,1,2.54-1.1,3.57,3.57,0,0,1,2.35.33,4.66,4.66,0,0,1,1.78,1.58A4.2,4.2,0,0,1,154.6,68a3.72,3.72,0,0,1-1.16,2.32l-1.1-1.17a2.72,2.72,0,0,0,.76-1.5,2,2,0,0,0-.36-1.43A2.55,2.55,0,0,0,150.88,65a4.19,4.19,0,0,0-2.78.93,4.34,4.34,0,0,0-1.91,2.19,2.45,2.45,0,0,0,.36,2.12,2.33,2.33,0,0,0,1.38,1,2.76,2.76,0,0,0,2-.34"></path><path class="cls-4" d="M153.23,80a5.73,5.73,0,0,1-1.88-.82,5.09,5.09,0,0,1-1.26-1.31,3.42,3.42,0,0,1-.71-2.48,2.5,2.5,0,0,1,1.15-1.82,2.88,2.88,0,0,1,1.25-.46,2.8,2.8,0,0,1,1.26.18,4.3,4.3,0,0,1,1.1.69,8.81,8.81,0,0,1,1,1.08,14.63,14.63,0,0,0,2.1,2.08,3.5,3.5,0,0,0,.35-.23,1.75,1.75,0,0,0,.9-1.17,2.66,2.66,0,0,0-.57-1.86,3,3,0,0,0-1.29-1.19,2.55,2.55,0,0,0-1.64.14l-.71-1.47a4.2,4.2,0,0,1,1.76-.32,3.11,3.11,0,0,1,1.62.66,6.78,6.78,0,0,1,1.51,1.62,5.51,5.51,0,0,1,.87,1.83,2.61,2.61,0,0,1,0,1.35,2.51,2.51,0,0,1-.63,1.05,9,9,0,0,1-1.21.91l-1.8,1.23a21.86,21.86,0,0,0-2.34,1.7,3.9,3.9,0,0,0-.73,1l-.95-1.44a4,4,0,0,1,.8-1m3-2.13a11.43,11.43,0,0,1-2-1.88,6.22,6.22,0,0,0-1.07-1,1.39,1.39,0,0,0-.79-.25,1.46,1.46,0,0,0-.79.26,1.36,1.36,0,0,0-.61,1,2.16,2.16,0,0,0,.44,1.45,3.46,3.46,0,0,0,1.28,1.17,2.46,2.46,0,0,0,1.54.26,4.06,4.06,0,0,0,1.51-.68Z"></path><path class="cls-4" d="M157.77,86.27l-1.07,1a4.84,4.84,0,0,1-.82-.93,3,3,0,0,1-.54-1.31,1.64,1.64,0,0,1,.23-1,6.15,6.15,0,0,1,1.5-1.24l4.6-3.11-.67-1,1.06-.72.68,1,2-1.35,1.73.79-2.8,1.9.91,1.36-1.06.71L162.58,81,157.9,84.2a3.24,3.24,0,0,0-.71.57.7.7,0,0,0-.09.39.88.88,0,0,0,.22.53,2.4,2.4,0,0,0,.45.58"></path><path class="cls-4" d="M157.51,88.49l8-5.4.91,1.36-8,5.4Zm9.49-6.4,1.56-1,.91,1.35-1.55,1.06Z"></path><path class="cls-4" d="M163.53,89.2a5.13,5.13,0,0,1,4.11-.92,4.44,4.44,0,0,1,2.6,1.8,4,4,0,0,1,.74,3.27,4.76,4.76,0,0,1-2.28,2.92,6.3,6.3,0,0,1-2.76,1.12,4.21,4.21,0,0,1-2.27-.38,5.05,5.05,0,0,1-1.8-1.54,4,4,0,0,1-.75-3.27,5.05,5.05,0,0,1,2.41-3m.95,1.34a4,4,0,0,0-1.87,2.11,2.39,2.39,0,0,0,.39,2.11,2.6,2.6,0,0,0,1.9,1.1,4.36,4.36,0,0,0,2.79-.87,3.76,3.76,0,0,0,1.79-2.09,2.37,2.37,0,0,0-.35-2.08,2.56,2.56,0,0,0-1.9-1.12,4.19,4.19,0,0,0-2.75.84"></path><path class="cls-4" d="M165.7,100.67l8-5.41.81,1.22-1.13.76a3.47,3.47,0,0,1,3,1.67,4.08,4.08,0,0,1,.64,1.5,2.69,2.69,0,0,1-.07,1.37,3.2,3.2,0,0,1-.71,1.12,15,15,0,0,1-1.26.95l-4.94,3.32-.92-1.35,4.87-3.28a4.43,4.43,0,0,0,1.14-1,1.43,1.43,0,0,0,.27-1,2.14,2.14,0,0,0-.38-1.1,2.69,2.69,0,0,0-1.56-1.12,3.31,3.31,0,0,0-2.53.77l-4.36,3Z"></path><path class="cls-4" d="M176.14,129.88H7.14L94.39,7.22ZM11,127.89h161.5L94.34,10.69Z"></path><path class="cls-4" d="M109.56,74.92v6c0,.26-.27-.1-.32-.13-.86-.62-1.71-1.29-2.62-2-.24-.18-.49-.34-.73-.55A14.68,14.68,0,0,0,104,76.88a4.21,4.21,0,0,0-1.57-.51,6.14,6.14,0,0,0-4.08,1,4.56,4.56,0,0,0-.81.83.28.28,0,0,0,0,.09,2,2,0,0,0-.24.44,4,4,0,0,0-.1,3.24,4.09,4.09,0,0,0,1.14,1.36c.1.1.29.24.45.38l.37.28.52.3,5.68,3.42a13.93,13.93,0,0,1,3,2.21,8.55,8.55,0,0,1,1.78,2.58,9.63,9.63,0,0,1,.46,3.74,8.57,8.57,0,0,1-.41,2.23c-1.27,3.53-4.8,5.11-9.43,5.32a16.45,16.45,0,0,1-1.72,0,31.49,31.49,0,0,1-7.36-1.27V95.94a5.13,5.13,0,0,1,1,.84c.6.54,2.76,2.42,3.65,3.22A7.48,7.48,0,0,0,98,101.39a7.23,7.23,0,0,0,3.26.24,4.83,4.83,0,0,0,3.26-1.63c.09-.1.12-.18.24-.33s.17-.22.27-.41c.44-.9.9-3.26-.69-4.68a28.19,28.19,0,0,0-3-2.23c-.06,0-1.85-1.12-1.92-1.17-2.24-1.45-6.26-3.36-7-6.8a10.61,10.61,0,0,1,.09-4.83,7.26,7.26,0,0,1,2.23-3.22A11.67,11.67,0,0,1,97,75.12a15.19,15.19,0,0,1,3.91-.84,30,30,0,0,1,8.62.64"></path><path class="cls-4" d="M139.58,102.8a6.63,6.63,0,0,1-.46-.52,10.52,10.52,0,0,1-1.54-2.47c-.47-.94-8.76-25-9-25.45,0,0,0-.2-.14-.19-1.26.35-2.47.74-3.69,1.08-.93,2.37-1.93,4.79-2.89,7.2L115.65,98c-.25.59-.53,1.15-.8,1.68-.12.29-.88,1.7-1.13,2.07s-.7.9-1,1.25c-.1.13-.53.51-.33.46h6.9c.09,0-.23-.35-.32-.46l-.39-.56a3.12,3.12,0,0,1-.44-1.08,3.78,3.78,0,0,1,.36-2c.36-1,2.28-6.76,2.51-7h8.21c.66,2.11,1.59,4.82,2.24,7,.11.37.21.78.29,1.17a3.57,3.57,0,0,1,0,.93,4.06,4.06,0,0,1-.61,1c-.24.32-.78,1-.67,1h9.7c0-.16-.48-.58-.6-.69M121.64,90.21c1.18-3.44,2.4-6.82,3.58-10.25,0,0,0,0,0,0,.52,1.51,1,3,1.45,4.5.07.21.14.41.22.61.28.85.52,1.71.79,2.56a26.37,26.37,0,0,1,.81,2.57Z"></path><path class="cls-4" d="M59.83,74.68q4.85,10.51,9.7,21c.2-.16,8.22-17.14,10.16-21h7.07c.19,0,0,.19,0,.29a11.23,11.23,0,0,0-1.18,2.41,13.2,13.2,0,0,0-.47,3.6V97.21a12.24,12.24,0,0,0,.47,3.59c.14.38.25.73.42,1.11.07.12.73,1.31.79,1.4s.14.19.07.18H77.39c-.19,0,0-.19,0-.18s.12-.17.13-.22a10.61,10.61,0,0,0,1.37-3.55c.27-1.61.19-13.07.19-16.64-.13-.06-.13.1-.19.22-.25.49-4,8.3-4.84,10-1.65,3.49-3.33,7-5,10.35H66.36c-.81-1.74-9.33-20-9.47-20.37a.71.71,0,0,0-.18-.27V94.07a37.21,37.21,0,0,0,.13,5.47c0,.2.06.42.1.6s.19.68.31,1.06c0,.09.07.22.11.29s.68,1.27,1,1.82c0,0,.09.12,0,.18H51.85c-.15.06-.08-.09,0-.09a13.12,13.12,0,0,0,1.27-2.74,12.52,12.52,0,0,0,.46-3.55c.05-5,0-11,0-16a12.31,12.31,0,0,0-.46-3.55,11,11,0,0,0-1.27-2.69s0-.1-.09-.11c2.59-.09,5.4,0,8.07,0"></path><path class="cls-4" d="M74.28,118.46a6,6,0,0,0-.13.61c-.26-.07-.47-.29-.76-.23a.48.48,0,0,0-.2.83l.2.14c.22.16.67.35.84.62,0,0,0,0,0,.08a1.61,1.61,0,0,1,0,1.31,1.34,1.34,0,0,1-1.81.18,2.21,2.21,0,0,1,.18-.6,1.24,1.24,0,0,0,1,.18c.31-.13.18-.66,0-.84,0,0,0-.08-.05-.08s-.06,0-.1,0,0-.13-.08-.15-.13,0-.2,0-.17-.17-.27-.25a3,3,0,0,1-.33-.27s-.12-.27-.12-.32c0-.21,0-.39,0-.71.14-.19.23-.48.49-.6a1.53,1.53,0,0,1,1.32.14"></path><path class="cls-4" d="M104.11,118.46a3.23,3.23,0,0,1-.14.61c-.23,0-.4-.36-.79-.23-.16,0-.28.16-.28.45s.21.42.37.56.17.06.23.1a2.86,2.86,0,0,1,.61.52,1.61,1.61,0,0,1,.18.82c-.08.87-1,1.27-2,.71a4.62,4.62,0,0,0,.19-.6,1.68,1.68,0,0,0,.94.23c.14,0,.17-.13.28-.18.11-.67-.39-.84-.79-1.13a3.63,3.63,0,0,1-.47-.41,1.49,1.49,0,0,1-.08-1,2.13,2.13,0,0,1,.31-.48.75.75,0,0,0,.2,0,1.13,1.13,0,0,1,.41-.14,1.49,1.49,0,0,1,.84.24"></path><path class="cls-4" d="M126.06,119c0-.11-.14-.16-.19-.24s-.13-.21-.28-.3,0-.08,0-.08a1.84,1.84,0,0,0-.9-.14,1,1,0,0,0-.73.37,2.87,2.87,0,0,0-.38,2.67,2.14,2.14,0,0,0,.42.69.67.67,0,0,0,.2.14,1.29,1.29,0,0,0,1.76-.56s.1,0,.1,0a3.86,3.86,0,0,0,0-2.51m-.42,1.58c-.06.61-.35,1.14-1.12,1-.88-.46-.75-3.27.66-2.7.35.15.55,1,.46,1.69"></path><path class="cls-4" d="M57.91,119.14a4.13,4.13,0,0,0-.13-.5c-.05-.12-.11-.42-.33-.35h-.09c-.43,1.29-.86,2.61-1.32,3.89h.67c.14-.22.08-.6.28-.78h1.07a4.57,4.57,0,0,1,.22.78H59c-.31-1-.71-2.08-1-3m-.78,1.73c.07-.47.24-.86.32-1.33.06,0,.08,0,.08,0,.11.46.27.83.34,1.31Z"></path><path class="cls-4" d="M68.22,119.14c-.06-.13-.08-.34-.14-.5s-.09-.42-.33-.35h-.09c-.43,1.29-.87,2.61-1.31,3.89H67c.1-.24.1-.6.29-.78h1.06a2.86,2.86,0,0,1,.23.78h.66c-.29-1-.7-2.09-1-3m-.79,1.73c.08-.47.26-.86.32-1.33.06,0,.07,0,.1,0,.08.46.26.84.31,1.31Z"></path><path class="cls-4" d="M80.75,119.1c0-.11-.11-.33-.17-.51s-.07-.28-.2-.3a.54.54,0,0,0-.18,0c-.46,1.27-.92,2.57-1.31,3.89h.65c.09-.27.09-.6.27-.78h1.07c.08.27.15.52.24.78.21,0,.54.08.66,0-.37-.93-.7-2-1-3m-.82,1.77c.13-.44.23-.93.36-1.38a8.84,8.84,0,0,1,.42,1.38Z"></path><path class="cls-4" d="M88.62,118.39a3.63,3.63,0,0,0-1.58-.06v3.85a2.43,2.43,0,0,0,1.87-.36,1.4,1.4,0,0,0,.44-.66,2.35,2.35,0,0,0-.73-2.77m-.18,3.06a1,1,0,0,1-.31.13,1.85,1.85,0,0,1-.47,0,21.25,21.25,0,0,1,0-2.66,1.05,1.05,0,0,1,.7.11.9.9,0,0,1,.46.65,2.06,2.06,0,0,1-.43,1.77"></path><path class="cls-4" d="M92.5,119.1c0-.11-.12-.33-.18-.51s-.06-.28-.2-.3a.54.54,0,0,0-.18,0c-.44,1.27-.91,2.54-1.3,3.89h.64c.09-.27.1-.6.29-.78h1.07a8,8,0,0,0,.24.78c.2,0,.53.08.65,0-.37-.93-.71-2-1-3m-.84,1.77c.13-.42.25-.9.39-1.33a9.44,9.44,0,0,1,.42,1.33Z"></path><path class="cls-4" d="M96.39,120.42c.13,0,.18-.1.26-.2s.19-.17.22-.27a1.85,1.85,0,0,0,.06-1s-.09-.08-.09-.09a1.77,1.77,0,0,0,0-.2s-.09,0-.11,0,0-.08,0-.09,0,0-.09,0,0-.07,0-.08-.06,0-.09,0,0-.09,0-.12l-.14,0a1.81,1.81,0,0,1-.31,0,10.92,10.92,0,0,0-1.13,0s0,0,0,0v3.92h.6a11.14,11.14,0,0,1,.06-1.57h.33c.31.5.58,1,.88,1.57h.65c-.25-.61-.64-1.16-.91-1.76m-1-.43a5,5,0,0,1,.06-1.06,1,1,0,0,1,.87.18c.23.64-.2,1-.93.88"></path><path class="cls-4" d="M101,119.78a2.53,2.53,0,0,0-.42-1,.68.68,0,0,0-.33-.29,1.22,1.22,0,0,0-.42-.18,3.39,3.39,0,0,0-1.31.05v3.78a2.72,2.72,0,0,0,1.83-.23,2.52,2.52,0,0,0,.65-2.14m-.75,1.19a.76.76,0,0,1-.42.51,1.07,1.07,0,0,1-.7.1c0-.86-.05-1.87,0-2.65a1.11,1.11,0,0,1,.78.09c.43.25.54,1.3.29,2"></path><path class="cls-4" d="M109.19,118.64c-.12-.12,0-.44-.34-.35h-.09c-.42,1.29-.85,2.61-1.3,3.89h.66c.11-.24.11-.6.29-.78h1.06a3.73,3.73,0,0,1,.23.78h.65c-.37-1.21-.79-2.33-1.16-3.54m-.65,2.23c.07-.47.27-.85.31-1.33.07,0,.1,0,.11,0,.09.44.26.82.32,1.29Z"></path><path class="cls-4" d="M129.26,120.42a1.24,1.24,0,0,0,.39-1.82s-.1,0-.17-.1-.13-.12-.15-.15-.35-.06-.47-.09a9.56,9.56,0,0,0-1.17,0v3.87h.61a12.35,12.35,0,0,1,0-1.63c.06.07.2.06.33.06.32.49.57,1,.88,1.57h.66c-.29-.62-.66-1.15-1-1.76m-1-.47a5.19,5.19,0,0,1,0-1.07,1.44,1.44,0,0,1,.84.18c0,.12.06.12.07.19a.92.92,0,0,1-.12.66,1.26,1.26,0,0,1-.84,0"></path><path class="cls-4" d="M52.71,118.32c.22.86.46,1.71.69,2.55.3-.77.43-1.77.74-2.55h.19c.13,0,.16.27.18.42s0,.35.05.5c.16.9.38,2,.5,2.93h-.55c-.09-.66-.22-1.35-.34-2-.25.53-.33,1.24-.58,1.87,0,.06,0,.21-.15.17s-.23-.29-.27-.41a12.68,12.68,0,0,1-.46-1.63c-.15.09-.13.32-.15.44a12.1,12.1,0,0,0-.24,1.54h-.6c.21-1.26.46-2.53.65-3.85Z"></path><polygon class="cls-4" points="60.21 118.32 60.21 122.17 62.31 122.17 62.31 121.58 60.81 121.58 60.81 118.32 60.21 118.32"></polygon><path class="cls-4" d="M65.78,118.32v.61h-1c-.13,1,0,2.18-.06,3.24h-.61v-3.24H63v-.61Z"></path><path class="cls-4" d="M78.33,118.32v.61H77.27a28.93,28.93,0,0,0,0,3.24h-.56V119a3.88,3.88,0,0,0-1.09,0v-.61Z"></path><path class="cls-4" d="M84.86,120.61c.11-.68,0-1.56,0-2.29h.56c0,1.29,0,2.7,0,3.91-.32,0-.43-.31-.56-.52,0,0-.06-.12-.09-.17s-.09,0-.1-.06,0-.06,0-.08a4,4,0,0,1-.31-.48c-.23-.31-.46-.73-.76-1.07v2.33h-.55v-3.86c.16,0,.26,0,.36.09s.19.27.28.41c.38.58.81,1.3,1.17,1.79"></path><path class="cls-4" d="M112.23,118.32v1.87c0,.62-.06,1.29.37,1.45a.79.79,0,0,0,.65-.11c.55-.36.15-2.37.28-3.21h.56c-.13,1.08.24,2.68-.13,3.39,0,0-.11,0-.11.06a1.42,1.42,0,0,1-1.68.38s0-.09,0-.09-.07,0-.08,0c-.64-.55-.36-2.44-.43-3.6,0-.28.43-.09.62-.14"></path><path class="cls-4" d="M118.14,118.32v.61h-1.08c-.11,1,0,2.18,0,3.24h-.58v-3.24h-1.07v-.61Z"></path><path class="cls-4" d="M120.05,118.32v1.53h1.25a9.46,9.46,0,0,0,.06-1.53h.56v3.85h-.56v-1.7H120.1a8.39,8.39,0,0,0,0,1.68c-.13.08-.41,0-.61,0v-3.85Z"></path><rect class="cls-4" x="131.46" y="118.31" width="0.61" height="3.87"></rect><path class="cls-4" d="M137.1,118.32h.63c.23.54.52,1.06.73,1.63a1.23,1.23,0,0,0,.24-.38l.56-1.25h.6c-.15.39-.32.77-.51,1.17-.09.16-.2.36-.29.56a2.89,2.89,0,0,0-.27.56c-.09.46.06,1,0,1.56h-.61c-.05-.6.09-1.12,0-1.56a4.34,4.34,0,0,0-.51-1.07l-.57-1.22"></path><path class="cls-1" d="M100.76,104.86h-1v9.69h3.65v-10a19.87,19.87,0,0,1-2.63.3m-23.36-.31h-.9v10h3.7v-10Zm35,0h-1v10h3.68v-10Zm-30.07,10H86v-10H82.31Zm11.62,0H97.6v-9.82a25,25,0,0,1-3.67-.55ZM105.55,104v10.55h3.69V101.78a9.26,9.26,0,0,1-3.69,2.22m-5.81-3.34H100a8.86,8.86,0,0,0,1.19-.07,3.93,3.93,0,0,0,2.25-.93V95.13a22.84,22.84,0,0,0-2.58-1.9,6.74,6.74,0,0,0-.59-.34,4.1,4.1,0,0,0-.48-.31Zm-5.81-4.07c1.32,1.18,2.76,2.46,3.67,3.2V91.26a22,22,0,0,1-3.67-2.62ZM76.5,90.41v12.36l0-.08s0-.09.08-.1l0,0a9.67,9.67,0,0,0,1.22-3.22c.18-1.07.19-7.63.18-12.13-.52,1-1,2.17-1.55,3.2m29.05-3.71c.1,0,.19.12.23.14A17.89,17.89,0,0,1,109,89.19a1.87,1.87,0,0,1,.2.22V82.05c-.28-.21-.59-.42-.68-.51l-1.71-1.27-.86-.65-.23-.19-.21-.15Zm-5.81-8.91v5.4a.94.94,0,0,1,.1.1l.32.17c.19.14,1.78,1.1,3.23,2V77.75a3,3,0,0,0-1.11-.35,2.32,2.32,0,0,0-.47,0,5.29,5.29,0,0,0-2.07.42M76.5,67.61V78.87l2.26-4.65.29-.55h1.13l0-6.06Zm34.89,0,0,25.82a10.45,10.45,0,0,1,0,4.4V103c.22-.25.43-.47.48-.54s.05,0,.08-.09c.4-.44.7-.85.94-1.16s.94-1.65,1.08-1.93c.27-.54.52-1.08.75-1.61l.35-.85V67.61ZM82.31,73.67H86V57.08H82.31Zm23.24-16.6V73.28c1.18.12,2.38.28,3.69.51V57.07ZM88.13,46.46V73.67h.76s-.4.56-.76,1.13v28.6l.76,1.15h-.76v10H91.8V103.66a2.84,2.84,0,0,1-.44-.1l-.77-.21,0-9.78s.47.45,1.24,1.1v-9a4.72,4.72,0,0,1-.36-1.1,11.38,11.38,0,0,1,.12-5.4s.08-.23.24-.55V46.46Zm11.61,0V73.38a8.64,8.64,0,0,1,1.11-.14c.66-.06,1.35-.09,2.05-.09a3.93,3.93,0,0,1,.49,0V46.46Zm-5.81-7.77v37c.07-.08.15-.14.23-.22a14.75,14.75,0,0,1,2.52-1.36c.29-.1.61-.19.92-.28V38.69Z"></path><g class="cls-5"><rect class="cls-6" x="76.5" y="38.69" width="38.55" height="75.86"></rect></g></svg>