<svg xmlns="http://www.w3.org/2000/svg" id="Layer_1" data-name="Layer 1" viewBox="0 0 437 176"><defs><style>.cls-1{fill:#002955;}</style></defs><title>accr_colour_elt</title><path class="cls-1" d="M4.27,78.94h0V94.83A92.45,92.45,0,0,0,96.61,2.51H80.69A76.53,76.53,0,0,1,4.27,78.94"></path><path class="cls-1" d="M4.27,35.85V76.08A73.68,73.68,0,0,0,77.85,2.51H37.63A33.35,33.35,0,0,0,4.27,35.85"></path><path class="cls-1" d="M93.5,101.51a4.83,4.83,0,0,0-4.74,3.23c-1,2-1.66,6-2.09,12.17H100.4c-.46-6.19-1.16-10.2-2.11-12.17A4.93,4.93,0,0,0,93.5,101.51Z"></path><path class="cls-1" d="M140.9,2.51H99.44A95.29,95.29,0,0,1,4.26,97.7v41.46a33.36,33.36,0,0,0,33.39,33.35H140.9a33.35,33.35,0,0,0,33.36-33.35V35.85A33.34,33.34,0,0,0,140.9,2.51ZM111.45,124.7H86.67c0,12.57,2.49,18.89,7.48,18.89q6.8,0,6.81-11.45h10.11q-1.2,20.7-17,20.72A16.85,16.85,0,0,1,86,151.1a14,14,0,0,1-5.63-5.42,28.72,28.72,0,0,1-3.25-9.36A74.48,74.48,0,0,1,76,122.81q0-15.59,4.34-23.07T93.8,92.26q17.65,0,17.65,31.11ZM132,152H121.12V55.51H132Zm30.37-50.15h-5.92V152H145.57V101.85h-6V93.21h6V76.75h10.84V93.21h5.92Z"></path><path class="cls-1" d="M216.77,94.36v11.07a6.75,6.75,0,0,0-5.44-2.8q-9,0-9,19.42,0,20.61,8.93,20.61a9.4,9.4,0,0,0,5.49-2.21V150.6a18.16,18.16,0,0,1-8.72,2.27q-17.49,0-17.49-29.73c0-10.57,1.4-18.34,4.34-23.36s7.31-7.51,13.37-7.51a18.56,18.56,0,0,1,8.5,2.09"></path><path class="cls-1" d="M249.42,122.8c0-7.74-.5-13.1-1.55-16.16s-2.8-4.54-5.44-4.54-4.4,1.54-5.49,4.53-1.55,8.33-1.55,15.81.53,12.82,1.55,15.79,2.93,4.54,5.49,4.54,4.39-1.48,5.4-4.45,1.59-8,1.59-15.52m11.25.28q0,29.79-18.43,29.76t-18.45-30.23q0-30.33,18.37-30.34a18,18,0,0,1,8.27,1.79,14.79,14.79,0,0,1,5.76,5.63,30.7,30.7,0,0,1,3.39,9.56,78.82,78.82,0,0,1,1.09,13.83"></path><path class="cls-1" d="M270.78,93.21h10.83V132.5c.1,3.65.61,6.24,1.6,7.77a5.59,5.59,0,0,0,5,2.33c2.46,0,4.18-.66,5.15-2s1.49-4,1.49-7.53V93.21h10.86v35.14q0,12.35-1.83,16.47c-2.53,5.39-7.8,8-15.77,8q-9.43,0-13.41-4.71c-2.66-3.22-4-8.6-4-16.07Z"></path><path class="cls-1" d="M318,93.21h10.82V100c3.12-5.14,7.13-7.72,12.07-7.72q7.13,0,10.21,5.61c1.1,2.14,1.71,6.23,1.71,12.35V152H342l0-39.34c0-3.94-.49-6.77-1.44-8.42a5.15,5.15,0,0,0-4.85-2.53,7.59,7.59,0,0,0-3.2.65,5.42,5.42,0,0,0-2.06,2.13,11.4,11.4,0,0,0-1.15,3.79,34.73,34.73,0,0,0-.39,5.71v38H318Z"></path><path class="cls-1" d="M389.07,94.36v11.07a6.82,6.82,0,0,0-5.44-2.8c-6,0-9,6.48-9,19.42q0,20.61,8.91,20.61a9.58,9.58,0,0,0,5.54-2.21V150.6a18.47,18.47,0,0,1-8.75,2.27c-11.64,0-17.5-9.9-17.5-29.73,0-10.57,1.45-18.34,4.35-23.36s7.34-7.51,13.37-7.51a18.8,18.8,0,0,1,8.53,2.09"></path><path class="cls-1" d="M398.28,93.21H409.2V152H398.28Zm5.08-25a7.08,7.08,0,0,1,5.08,2.1,7.2,7.2,0,0,1,2.2,5.22,7.43,7.43,0,0,1-7.38,7.34A7.05,7.05,0,0,1,398,80.76a6.92,6.92,0,0,1-2.1-5.24,7.12,7.12,0,0,1,2.16-5.17,7.8,7.8,0,0,1,5.28-2.1"></path><rect class="cls-1" x="421.36" y="55.51" width="10.83" height="96.49"></rect></svg>