<svg xmlns="http://www.w3.org/2000/svg" id="Layer_1" data-name="Layer 1" viewBox="0 0 344 176"><defs><style>.cls-1{fill:#000d8e;}.cls-2{fill:#ffc800;}</style></defs><title>accr_colour_eaquals</title><path class="cls-1" d="M339.76,101.13c0-11.39-7.25-14.93-19.11-15.13-12.76-.18-22,2.45-22.19,14.34-.29,14.71,10.7,14.33,21.37,14.93,5.5.27,8.84.36,8.66,6.06-.11,3.43-1.78,5.61-11.3,5.3-7.85-.2-9.6-2.18-9.6-6.28h-10.2c0,11.78,7.83,14.9,19.91,15.13,12.85.18,22-2.87,22.17-14.63.29-15.3-11.19-14.42-22.17-15.13-4.81-.3-8-.3-7.76-5.67.1-3.15,1.68-5.4,11.19-5.09,6.48.17,8.84,1.54,8.84,6.17M91.75,113.69H78.88c-6.77,0-8.91,1.17-8.91,6.28,0,4.11,1.76,6.37,9.31,6.37h2.64c7.55,0,9.83-2.26,9.83-6.46ZM77.51,135.48c-11.38,0-18.63-3.64-18.63-15.33,0-13.92,10.18-15.51,20.4-15.51H91.56c0-6.37-.42-9.22-10.12-9.22-4.33,0-10.42.21-10.42,5.31H60.24C60.24,88.45,70.93,86,82,86c12.83,0,20.31,5.1,20.31,17.47v16.68c-.1,11.72-7.34,15.33-18.66,15.33Zm176.12-21.79H240.78c-6.79,0-8.93,1.17-8.93,6.28,0,4.11,1.75,6.37,9.32,6.37h2.66c7.55,0,9.79-2.26,9.8-6.46Zm-14.25,21.79c-11.37,0-18.63-3.64-18.63-15.33,0-13.92,10.21-15.51,20.42-15.51h12.25c0-6.37-.38-9.22-10.11-9.22-4.32,0-10.39.21-10.39,5.31h-10.8c0-12.28,10.69-14.73,21.79-14.73,12.85,0,20.31,5.1,20.31,17.47v16.68c-.09,11.72-7.33,15.33-18.64,15.33Zm-92.31-24.75c0-10.79-1-14.91-11.68-14.91s-11.66,4.12-11.66,14.91,1,14.91,11.66,14.91,11.68-4.1,11.68-14.91m-99,13.53v10.41H26.48c-8,0-14-1.39-18.2-5.55S3,118.6,3,109.21V92.38c0-9.4.86-15.76,5.21-19.92s10.21-5.55,18.22-5.55H48.05V77.23H26.43c-11,0-12,4-12,15.15V95H45.74v10.2H14.41v4c0,11.1,1.05,15.05,12.07,15.05Zm99,9.49a33.16,33.16,0,0,1-11.68,1.73c-7.74,0-13.55-1.39-17.66-5.39s-5.1-10.24-5.1-19.36.9-15.31,5.1-19.32S127.65,86,135.39,86s13.54,1.39,17.66,5.41,5.11,10.21,5.11,19.32v52L147.07,173Zm41.21-8.11h2.33c9.61,0,8.73-4.41,8.73-13.65V86.81h11.09V112.9c0,10.39.79,22.58-18.55,22.58H187c-19.31,0-18.54-12.19-18.54-22.58V86.81h11.09V112c0,9.24-.88,13.65,8.73,13.65m98.69,9V66.91L275.89,77.23v57.44Z"></path><polygon class="cls-2" points="223.01 17.13 206.39 40.02 223.01 62.89 196.11 54.16 179.49 77.03 179.49 48.75 152.59 40.02 179.49 31.27 179.49 3 196.11 25.88 223.01 17.13"></polygon></svg>