<svg xmlns="http://www.w3.org/2000/svg" id="Layer_1" data-name="Layer 1" viewBox="0 0 219 176"><defs><style>.cls-1{fill:#004480;}</style></defs><title>accr_colour_cen</title><path class="cls-1" d="M214.65,105.66l-.06-.16-.16-.07a3.12,3.12,0,0,0-.45-.32,3.05,3.05,0,0,1-1.35-1.25l.06-.13a2.36,2.36,0,0,0,0-.3,2.88,2.88,0,0,1-.59,0c-1.17-.1,2.75,2,1.58,1.8-2.15-.27-5.26-.39-3.4.82.78.55-1.78-1.15-2.83-1-2.85.55.49.51-2.23.73a65.47,65.47,0,0,1-9.05.17c-1.79-.14-4.82-.78-6.73-.58-.44,0-3.41.46-3.87.46-4,.24-6.59,1.45-8.92,2s-4.83.9-7.2,1.56c-3.39,1-1.52,0-4.6,1.09-2,.65-3.61.45-5.8,1-2.74.62-4.79.64-7.55,1.46a8,8,0,0,1-2.72.51c-1,0-1-.21-2,0-.15,0-.81.12-.93.14-.73,0-2.07-.33-2.64.06-.85.55-.37.1-1.21.49a10.79,10.79,0,0,1-1.58.66c-3.39.68-6.41,1.6-6.7,1.62a20.78,20.78,0,0,0-2.34.7c-.39.16-2,.49-2.28.69a14.75,14.75,0,0,1-4.43,1.72c-.67.15-1.17,0-1.7.17-2.83.9-4,1.1-3.64.9a1.49,1.49,0,0,1-.25.06,6,6,0,0,0-1.73.45c-.75.37-2.5.45-3.15.82-1.09.61-17.85,6-18.39,6.12-.92.33-7.48,3.19-8.43,3.42-.06,0-.11-.06-.1-.18a1.84,1.84,0,0,0-.82.14,12,12,0,0,1-1.28.68c-.31.1-.62.06-.89.16s-.57.22-.84.31a8.82,8.82,0,0,0-1.76.55c-.75.49-1.58.35-2.47.63s-1.33,1.54-2.2,1.71c-.24.08-.53,0-.8.12a23.72,23.72,0,0,1-2.89.18c-1.18.23-.92,1.17-2.15,1.17a.65.65,0,0,1-.36.7,10,10,0,0,1-1.27.22c-.38.17-.2.66-.48.92s-.38.56-.64.41-.63-.32-1-.08c.12-.22-.17-.33-.12-.53-.5.33-.8,1.15-1.43.92-.13,0-.39-.63-.54-.43-.54.62-1.37.66-2.09,1-1.66.92-8.42,4.32-9.9,5.12C47,147.84,34,150.42,28.07,153.4l-7.42,2.33a13.34,13.34,0,0,0-1.51.53c-7.7,3.75-13.6,6.83-16,8.38l.44,1.21a23.69,23.69,0,0,0,7-2.06l1.12-.46a29,29,0,0,1,4-1.55c.6-.19,1.44-.45,3.59-1.15l6.3-2v12.92h170V111a70.26,70.26,0,0,0,8.13-.21c1.15-.06,1.59-.1,1.73-.61a3.64,3.64,0,0,1,.65-.13,5.71,5.71,0,0,1,2.38,1l.22.16h.65l.12-.45a.73.73,0,0,0-.16-.68,19.24,19.24,0,0,1,2.74.17l.19,0,.59-.06.12-.43c.18-.56-.22-.86-1-1.42a2.89,2.89,0,0,1,1.3,0l.17,0a4,4,0,0,0,1.16.23h0a1.4,1.4,0,0,0,.86-.27,1.43,1.43,0,0,0,.47-1.47,1.7,1.7,0,0,0-1.26-1.13"></path><path class="cls-1" d="M115,44.11c-3.5-6.23-18.43-8.52-22.56,4L92,50.54l25.29,0A17.47,17.47,0,0,0,115,44.11"></path><path class="cls-1" d="M182.73,84l0-27.84c-1.6-23-30.8-23.56-32.92-1.56l0,29.4H105.52c-16.31,0-28.3-15.18-28.3-28.39,0-16.31,12.4-29.95,27.46-29.95,11,0,30.1,5.26,29.12,36.2l-41.36,0a5.79,5.79,0,0,0,.26,1.29c2.74,6.86,5.72,8.13,12.86,8.3l31.57,0V50.34c0-32.51,58.21-32.63,58.21,4.41V84ZM81,84H50.08c-32.51,0-32.65-58.18,4.41-58.2l26.47,0V38.45H55.89c-23.28.66-24.52,32-1.55,33l26.62,0ZM25.59,1.58V150.32c37.73-18,116.78-51.12,170-55.42V1.58Z"></path></svg>