<svg xmlns="http://www.w3.org/2000/svg" id="Layer_1" data-name="Layer 1" viewBox="0 0 487 176"><defs><style>.cls-1{fill:#231f20;}.cls-2{fill:#ee3114;}</style></defs><title>accr_colour_feltom</title><path class="cls-1" d="M149.76,130l9.51,42.16h-6.13l-1.66-8.71h-9.22l-1.66,8.71H135L143.92,130Zm.86,28.76L147,139.49h-.11l-3.67,19.25Z"></path><path class="cls-1" d="M177.6,140.69c-.69-4.52-2.35-6.3-4.35-6.3-4.58,0-5.73,7.91-5.73,16.16,0,9.45,1,17.18,5.56,17.18,3.15,0,4.69-4.12,5.21-8.19l5.61,2c-.91,6.3-4,11.46-10.94,11.46-7.73,0-11.57-6.07-11.57-22.23,0-8.24,1.15-21.65,11.92-21.65,5,0,8.47,3.09,10.08,9.63Z"></path><path class="cls-1" d="M203,140.69c-.69-4.52-2.35-6.3-4.35-6.3-4.59,0-5.73,7.91-5.73,16.16,0,9.45,1,17.18,5.55,17.18,3.15,0,4.7-4.12,5.22-8.19l5.61,2c-.92,6.3-4,11.46-10.94,11.46-7.73,0-11.57-6.07-11.57-22.23,0-8.24,1.14-21.65,11.91-21.65,5,0,8.48,3.09,10.08,9.63Z"></path><path class="cls-1" d="M213.58,130H223c6.36,0,10.88,4.53,10.88,11.57,0,4.3-2.4,9.11-7.21,10.43l8.53,20.16h-6.7l-7.73-19.3h-1.38v19.3h-5.84Zm5.84,17.87c5.73,0,8.36-1.77,8.36-6.7,0-3.49-2.23-6.18-6.35-6.18h-2Z"></path><path class="cls-1" d="M254,130v5h-9.5v12.31H254v5h-9.5v14.9H254v5H238.61V130Z"></path><path class="cls-1" d="M257.63,130h6.76c11.11,0,14.15,10.48,14.15,21.42,0,9-2.81,20.74-13.69,20.74h-7.22Zm5.84,37.18c7,0,8.94-7.11,8.94-16.16,0-10.42-3.09-16-8.94-16Z"></path><path class="cls-1" d="M283.75,130h5.85v42.16h-5.85Z"></path><path class="cls-1" d="M301.17,135.25h-7.45V130h20.74v5.27H307v36.89h-5.84Z"></path><path class="cls-1" d="M333.19,130v5h-9.51v12.31h9.51v5h-9.51v14.9h9.51v5H317.84V130Z"></path><path class="cls-1" d="M336.86,130h6.76c11.11,0,14.14,10.48,14.14,21.42,0,9-2.8,20.74-13.69,20.74h-7.21Zm5.84,37.18c7,0,8.93-7.11,8.93-16.16,0-10.42-3.09-16-8.93-16Z"></path><path class="cls-1" d="M134.27,63.17h-7.46V48.37h7.46v-4c0-7,1.78-12.08,5.09-15.39s8.17-5,14.56-5a39.94,39.94,0,0,1,12.79,1.78V40.68a22.71,22.71,0,0,0-8.17-1.54c-4.14,0-6.51,2.13-6.51,6.86v2.49h14.56V63.17H152.27v48.07h-18Z"></path><path class="cls-1" d="M212.17,74.54c-1.06-8.06-5.8-13.5-13.37-13.5s-12.32,5.33-13.74,13.5Zm-44.75,5.32v-.23c0-18.12,12.91-33,31.38-33,21.19,0,30.9,16.45,30.9,34.45,0,1.42-.12,3.08-.24,4.73H185.3c1.78,8.17,7.46,12.43,15.51,12.43,6,0,10.42-1.89,15.39-6.51l10.3,9.12c-5.92,7.34-14.44,11.84-25.93,11.84-19.06,0-33.15-13.38-33.15-32.8"></path><rect class="cls-1" x="239.17" y="24.81" width="18" height="86.42"></rect><path class="cls-1" d="M272.32,93.24V63.17h-7.57V47.78h7.57V31.56h18V47.78h14.91V63.17H290.32V90.28c0,4.15,1.77,6.16,5.8,6.16A18.34,18.34,0,0,0,305,94.19v14.44a26.53,26.53,0,0,1-14.21,3.67c-11,0-18.47-4.38-18.47-19.06"></path><path class="cls-1" d="M359.82,79.86v-.23c0-9.36-6.75-17.52-16.7-17.52-10.3,0-16.45,7.93-16.45,17.28v.24c0,9.35,6.75,17.52,16.69,17.52,10.3,0,16.46-7.94,16.46-17.29m-50.91,0v-.23c0-18.23,14.68-33,34.45-33s34.21,14.56,34.21,32.79v.24c0,18.23-14.68,33-34.45,33s-34.21-14.57-34.21-32.8"></path><path class="cls-1" d="M385.87,47.78h18v9c4.15-5.33,9.59-10.18,18.71-10.18,8.28,0,14.56,3.67,17.87,10.06,5.57-6.51,12.2-10.06,20.84-10.06,13.38,0,21.43,8,21.43,23.32v41.32h-18V75.84c0-8.53-3.79-12.91-10.54-12.91s-10.89,4.38-10.89,12.91v35.4h-18V75.84c0-8.53-3.79-12.91-10.54-12.91s-10.89,4.38-10.89,12.91v35.4h-18Z"></path><path class="cls-2" d="M36.47,71.53A266.07,266.07,0,0,1,50.55,45.05c3-4.95,6.13-9.86,9.45-14.57H30v32A72.53,72.53,0,0,1,36.47,71.53Z"></path><path class="cls-2" d="M72.8,46A252.94,252.94,0,0,0,54.15,83.49H83.06v-53h-.17C79.25,35.56,75.88,40.82,72.8,46Z"></path><rect class="cls-2" x="88.88" y="128.68" width="21.55" height="21.55"></rect><rect class="cls-2" x="67.33" y="100.46" width="21.55" height="21.55"></rect><path class="cls-1" d="M30,62.45v-32H60q2.09-3,4.29-5.82H24.22V56.57A54.86,54.86,0,0,1,30,62.45Z"></path><path class="cls-1" d="M82.89,30.48h.17v53H54.15c-.76,1.94-1.53,3.89-2.22,5.82H88.88V24.66H87.29C85.77,26.56,84.3,28.49,82.89,30.48Z"></path><path class="cls-1" d="M92.18,3.05C75,10.9,62.75,28.32,52.08,46A259.59,259.59,0,0,0,37.39,73.85l-.73,1.61-.87-1.54a62.53,62.53,0,0,0-15-18.21c-.28,0-1,0-2.86,0-2.37,0-5.71,0-8.83.07-2.33,0-4.54,0-6.14,0,10.39,9.12,18.4,23.4,24.44,43.55,1.12.12,4.42.23,9.36.23s8.71-.11,9.93-.24C51.77,82,59.8,64.22,71.26,45.06,80.78,29.16,92.6,12,108.76,3.13l-5.07-.06C100.63,3,97.4,3,95.1,3,93,3,92.38,3,92.18,3.05Z"></path></svg>